<?xml version="1.0" encoding="UTF-8"?>
<!DOCTYPE svg PUBLIC "-//W3C//DTD SVG 1.1//EN" "http://www.w3.org/Graphics/SVG/1.1/DTD/svg11.dtd">
<!-- Creator: CorelDRAW -->
<svg xmlns="http://www.w3.org/2000/svg" xml:space="preserve" width="20.8752mm" height="9.5808mm" version="1.1" style="shape-rendering:geometricPrecision; text-rendering:geometricPrecision; image-rendering:optimizeQuality; fill-rule:evenodd; clip-rule:evenodd"
viewBox="0 0 429.48 197.11"
 xmlns:xlink="http://www.w3.org/1999/xlink"
 xmlns:xodm="http://www.corel.com/coreldraw/odm/2003">
 <defs>
  <style type="text/css">
   <![CDATA[
    .fil1 {fill:#3BA0FF}
    .fil0 {fill:#FAB945;fill-rule:nonzero}
   ]]>
  </style>
 </defs>
 <g id="Layer_x0020_1">
  <metadata id="CorelCorpID_0Corel-Layer"/>
  <g id="_2233918506880">
   <path class="fil0" d="M255.36 16.99l-10.63 111.59c-1.59,16.68 5.13,39.31 21.79,37.19 10.42,-1.33 11.04,-14.97 11.04,-17.27 0,-3.46 6.24,-26.99 18.04,-51.91 9.44,-19.93 11.79,-6.92 11.79,2.08l-7.63 69.91c12.21,54.26 46.48,19.38 58.27,-8.31 11.1,71.99 45.91,16.48 48.56,11.77 1.74,-3.09 16.42,-51.22 22.89,-76.83 -0.69,-10.38 -15.26,-3.46 -12.49,-3.46 2.77,0 -6.24,32.53 -16.65,60.22 -8.32,22.15 -8.55,9.23 -7.63,0 -1.5,-3 4.78,-34.36 9.08,-54.19 0.82,-3.79 -0.08,-7.93 -3.25,-10.17 -10.91,-7.68 -22.05,-0.93 -27.84,5.13 -1.09,1.14 -1.8,2.56 -2.25,4.07l-6.95 23.33c-32.19,86.38 -28.21,35.99 -22.2,0 6.1,-14.95 -0.23,-31.15 -4.16,-37.38 -23.59,-26.3 -47.17,-3 -54.11,11.77l7.63 -87.21c-11.65,-15.5 -30.52,-3.46 -33.3,9.69z"/>
   <path class="fil0" d="M403.79 59.9c0,6.5 -6.52,11.77 -14.57,11.77 -8.04,0 -14.57,-5.27 -14.57,-11.77 0,-6.5 6.52,-11.77 14.57,-11.77 8.05,0 14.57,5.27 14.57,11.77z"/>
   <path class="fil1" d="M208.02 138.87c-0.75,11.64 -15.59,34.48 -26.12,45.55 -3.58,5.55 -9.82,9.23 -16.92,9.23 -5.91,0 -11.23,-2.55 -14.91,-6.6 -10.77,-6.42 -26.1,-11.9 -36.46,-13.43l-0.08 0c-3.15,-0.01 -6.34,-0.02 -9.54,-0.02 -3.22,0 -6.4,0.01 -9.54,0.02l-1.28 0.01c-8.63,1.17 -24.34,7.37 -31.38,13.72 -3.67,3.88 -8.87,6.31 -14.64,6.31 -5.69,0 -10.82,-2.36 -14.48,-6.14 -11.58,-8.56 -27.23,-34.28 -28.25,-46.81 -2.88,-7.95 -4.42,-17.81 -4.42,-30.04 0,-67.1 47.25,-110.65 104.68,-110.65 57.43,0 107.46,43.55 107.46,110.65 0,11.31 -1.44,20.6 -4.11,28.22zm-49.26 -41.36c0,29.41 -22.97,53.25 -51.3,53.25 -28.33,0 -51.3,-23.84 -51.3,-53.25 0,-29.41 22.97,-53.25 51.3,-53.25 28.33,0 51.3,23.84 51.3,53.25z"/>
  </g>
 </g>
</svg>
